<svg xmlns="http://www.w3.org/2000/svg" xmlns:xlink="http://www.w3.org/1999/xlink" width="1em" height="1em" viewBox="0 0 16 16" fill="none"><path d="M14 2L2.00004 2C1.63185 2 1.33337 2.29848 1.33337 2.66667L1.33337 13.3333C1.33337 13.7015 1.63185 14 2.00004 14L14 14C14.3682 14 14.6667 13.7015 14.6667 13.3333L14.6667 2.66667C14.6667 2.29848 14.3682 2 14 2Z" stroke="currentColor" stroke-width="1.3333333333333333" stroke-linejoin="round"  ></path><path    stroke="currentColor" stroke-width="1.3333333333333333" stroke-linejoin="round" stroke-linecap="round"  d="M1.33337 6L14.6667 6"></path><path    stroke="currentColor" stroke-width="1.3333333333333333" stroke-linejoin="round" stroke-linecap="round"  d="M5.83337 6L5.83337 14"></path><path    stroke="currentColor" stroke-width="1.3333333333333333" stroke-linejoin="round" stroke-linecap="round"  d="M10.1666 6L10.1666 14"></path><path    stroke="currentColor" stroke-width="1.3333333333333333" stroke-linejoin="round" stroke-linecap="round"  d="M1.33337 10L14.6667 10"></path><path    stroke="currentColor" stroke-width="1.3333333333333333" stroke-linejoin="round" stroke-linecap="round"  d="M14.6667 2.66675L14.6667 13.3334C14.6667 13.7016 14.3682 14.0001 14 14.0001L2.00004 14.0001C1.63185 14.0001 1.33337 13.7016 1.33337 13.3334L1.33337 2.66675"></path></svg>