<svg xmlns="http://www.w3.org/2000/svg" xmlns:xlink="http://www.w3.org/1999/xlink" width="16" height="16" viewBox="0 0 16 16" fill="currentColor"><path d="M10 3.3335C10 2.22893 9.10457 1.3335 8 1.3335C6.89543 1.3335 6 2.22893 6 3.3335L6 12.6668C6 13.7714 6.89543 14.6668 8 14.6668C9.10457 14.6668 10 13.7714 10 12.6668L10 3.3335Z" stroke="currentColor" stroke-width="1.3333333333333333" stroke-linejoin="round"     fill="currentColor" ></path><path d="M10 6.77123L12.4142 9.18543C12.9349 9.70613 13.7791 9.70613 14.2998 9.18543C14.8205 8.66477 14.8205 7.82053 14.2998 7.29983L10 3L10 6.77123Z" stroke="currentColor" stroke-width="1.3333333333333333" stroke-linejoin="round"     fill="currentColor" ></path><path d="M6.02362 9.13871L3.60939 6.72451C3.0887 6.20381 2.24448 6.20381 1.72378 6.72451C1.20308 7.24521 1.20308 8.08941 1.72378 8.61011L6.02362 12.9099L6.02362 9.13871Z" stroke="currentColor" stroke-width="1.3333333333333333" stroke-linejoin="round"     fill="currentColor" ></path><path    stroke="#fff" stroke-width="1.3333333333333333" stroke-linejoin="round" stroke-linecap="round"  d="M8 3.33398L8 3.66732"></path><path    stroke="#fff" stroke-width="1.3333333333333333" stroke-linejoin="round" stroke-linecap="round"  d="M8 12.3335L8 12.6668"></path></svg>