<svg xmlns="http://www.w3.org/2000/svg" xmlns:xlink="http://www.w3.org/1999/xlink" width="16" height="16" viewBox="0 0 16 16" fill="none"><path d="M4.80001 9.75973C5.00001 9.71973 5.20001 9.63973 5.36001 9.51973C5.48001 9.47973 5.56001 9.39973 5.64001 9.31973L5.64001 9.27973C5.60001 9.19973 5.60001 9.07973 5.56001 8.99973L5.56001 8.83973L5.32001 8.59973C5.16001 8.43973 5.00001 8.23973 4.92001 8.03973C4.84001 7.87973 4.80001 7.75973 4.76001 7.59973L4.76001 7.47973C4.64001 7.35973 4.52001 7.23973 4.44001 7.11973C4.28001 6.91973 4.20001 6.67973 4.12001 6.47973C4.00001 6.19973 4.00001 5.87973 4.00001 5.55973C4.04001 5.35973 4.08001 5.19973 4.12001 5.03973L4.24001 4.79973C4.24001 4.47973 4.28001 4.15973 4.32001 3.83973C4.36001 3.43973 4.40001 3.11973 4.48001 2.79973L4.36001 2.79973C4.20001 2.79973 4.04001 2.79973 3.88001 2.83973C3.72001 2.87973 3.56001 2.91973 3.40001 2.99973C3.24001 3.07973 3.08001 3.15973 2.96001 3.27973C2.76001 3.39973 2.64001 3.55973 2.52001 3.75973C2.40001 3.95973 2.28001 4.19973 2.20001 4.43973C2.12001 4.67973 2.08001 4.91973 2.04001 5.15973C2.00001 5.43973 2.00001 5.67973 2.00001 5.95973C1.88001 6.07973 1.84001 6.23973 1.84001 6.43973L1.84001 6.75973C1.88001 6.83973 1.92001 6.95973 1.96001 7.03973C2.00001 7.07973 2.04001 7.15973 2.08001 7.19973C2.16001 7.15973 2.20001 7.19973 2.24001 7.19973L2.32001 7.51973C2.36001 7.59973 2.40001 7.67973 2.44001 7.79973C2.48001 7.87973 2.52001 7.95973 2.56001 7.99973C2.68001 8.07973 2.76001 8.19973 2.88001 8.27973C2.96001 8.39973 3.04001 8.51973 3.04001 8.67973L3.04001 8.95973C3.04001 9.03973 3.04001 9.11973 3.00001 9.23973C2.96001 9.31973 2.92001 9.39973 2.84001 9.47973C2.76001 9.59973 2.64001 9.67973 2.52001 9.75973C2.32001 9.87973 2.12001 9.95973 1.88001 10.0397C1.72001 10.0797 1.16001 10.2797 0.76001 10.4397L0.76001 13.0397L0.80001 13.0397C0.80001 12.8797 0.84001 12.7197 0.88001 12.4797L0.88001 12.3997C0.92001 11.8797 1.20001 11.3997 1.60001 11.0397C1.92001 10.7997 2.32001 10.5997 2.72001 10.4797L2.80001 10.4797C3.96001 9.99973 4.56001 9.79973 4.80001 9.75973ZM14.88 9.99973L14.68 9.99973C14.88 10.0797 15.12 10.1597 15.32 10.2397L15.32 12.9197L15.28 12.9197C15.28 12.7997 15.28 12.7197 15.24 12.5997L15.12 11.8797C15 11.4797 14.76 11.1597 14.44 10.8797C14.16 10.6797 13.88 10.5197 13.56 10.3997L13.2 10.2397L12.56 9.95973C12.36 9.87973 12.16 9.79973 11.92 9.71973C11.72 9.67973 11.48 9.59973 11.28 9.51973C11.16 9.47973 11.04 9.39973 10.92 9.31973C10.96 9.19973 11 9.07973 11 8.95973L11 8.67973C11.24 8.47973 11.48 8.23973 11.6 7.91973C11.68 7.75973 11.72 7.63973 11.8 7.47973L11.8 7.43973L11.84 7.31973C12.04 7.15973 12.2 6.95973 12.32 6.71973C12.44 6.47973 12.48 6.23973 12.52 5.95973C12.56 5.71973 12.56 5.51973 12.52 5.27973C12.48 5.07973 12.4 4.83973 12.28 4.67973C12.28 4.35973 12.24 4.03973 12.2 3.75973C12.16 3.43973 12.08 3.11973 12 2.83973L12.24 2.83973C12.44 2.83973 12.6 2.87973 12.8 2.91973C13.12 2.99973 13.44 3.15973 13.72 3.35973C13.84 3.43973 13.92 3.51973 14 3.63973C14.16 3.87973 14.32 4.11973 14.4 4.35973C14.48 4.59973 14.52 4.83973 14.56 5.11973C14.6 5.39973 14.6 5.67973 14.6 5.95973C14.64 5.99973 14.68 6.03973 14.68 6.07973C14.72 6.11973 14.72 6.19973 14.76 6.27973L14.76 6.55973C14.76 6.67973 14.72 6.79973 14.68 6.91973C14.64 6.99973 14.6 7.07973 14.56 7.11973C14.52 7.15973 14.44 7.19973 14.36 7.23973C14.32 7.35973 14.28 7.47973 14.28 7.55973C14.24 7.63973 14.2 7.71973 14.16 7.83973C14.12 7.91973 14.08 7.99973 14 8.03973L13.84 8.19973C13.8 8.23973 13.72 8.27973 13.68 8.31973C13.64 8.35973 13.6 8.39973 13.56 8.47973C13.48 8.63973 13.48 8.83973 13.48 8.99973C13.48 9.11973 13.52 9.23973 13.56 9.31973C13.6 9.43973 13.68 9.55973 13.8 9.63973C13.92 9.75973 14.08 9.83973 14.24 9.91973C14.52 9.91973 14.72 9.95973 14.88 9.99973ZM14.2 11.6797C14.4 11.8397 14.52 12.0397 14.6 12.2797C14.64 12.4797 14.68 12.6397 14.72 12.8397C14.76 13.0797 14.76 12.8797 14.76 13.1197C14.76 13.3197 14.76 13.5597 14.72 13.7597C14.72 13.9197 14.64 14.0797 14.6 14.2397C14.48 14.3197 14.36 14.3997 14.2 14.4397C12.4 14.9597 10.52 15.1997 8.60001 15.1997C6.68001 15.1997 4.76001 14.9997 2.84001 14.6397C2.60001 14.5997 2.36001 14.5197 2.12001 14.3997C1.96001 14.1997 1.88001 13.9597 1.88001 13.7197C1.84001 13.3597 1.84001 12.9597 1.92001 12.5997C1.96001 12.2797 2.12001 11.9997 2.32001 11.7997C2.56001 11.5997 2.80001 11.4797 3.08001 11.3597C3.36001 11.2397 4.76001 10.7597 5.08001 10.6797C5.36001 10.5997 5.64001 10.4797 5.92001 10.3197C6.08001 10.2397 6.24001 10.1197 6.36001 9.95973C6.44001 9.83973 6.52001 9.75973 6.60001 9.59973C6.64001 9.47973 6.68001 9.35973 6.68001 9.23973L6.68001 8.83973C6.68001 8.63973 6.60001 8.43973 6.48001 8.31973L6.08001 7.91973C6.00001 7.83973 5.92001 7.75973 5.88001 7.63973C5.84001 7.51973 5.76001 7.39973 5.72001 7.27973L5.60001 6.75973C5.52001 6.71973 5.48001 6.71973 5.40001 6.67973C5.32001 6.59973 5.28001 6.55973 5.24001 6.47973C5.16001 6.35973 5.12001 6.23973 5.08001 6.11973C5.04001 5.95973 5.00001 5.83973 5.04001 5.67973C5.08001 5.55973 5.08001 5.47973 5.16001 5.35973C5.20001 5.23973 5.24001 5.15973 5.32001 5.03973C5.28001 4.35973 5.36001 3.63973 5.52001 2.95973C5.60001 2.63973 5.76001 2.31973 5.92001 2.03973C6.20001 1.55973 6.68001 1.19973 7.20001 0.999727C7.40001 0.919727 7.60001 0.839727 7.84001 0.799727C8.04001 0.759727 8.24001 0.759727 8.48001 0.719727C8.72001 0.719727 9.00001 0.759727 9.24001 0.799727C9.48001 0.879727 9.72001 0.959727 9.92001 1.03973C10.12 1.11973 10.32 1.23973 10.48 1.39973C10.64 1.51973 10.76 1.63973 10.88 1.79973C11.12 2.11973 11.28 2.43973 11.4 2.79973C11.52 3.11973 11.6 3.47973 11.64 3.83973C11.68 4.19973 11.72 4.59973 11.72 4.99973C11.8 5.03973 11.84 5.11973 11.84 5.15973C11.88 5.23973 11.92 5.31973 11.92 5.39973C11.96 5.51973 11.96 5.63973 11.92 5.79973C11.92 5.95973 11.88 6.11973 11.8 6.27973C11.76 6.39973 11.68 6.47973 11.6 6.55973C11.52 6.63973 11.48 6.67973 11.36 6.71973C11.32 6.87973 11.28 7.03973 11.24 7.15973C11.2 7.27973 11.12 7.39973 11.08 7.51973C11.04 7.63973 10.96 7.71973 10.88 7.79973C10.8 7.87973 10.72 7.91973 10.64 7.99973C10.56 8.03973 10.52 8.11973 10.44 8.15973C10.4 8.23973 10.32 8.27973 10.32 8.35973C10.24 8.59973 10.2 8.83973 10.2 9.07973C10.2 9.23973 10.24 9.39973 10.32 9.51973C10.4 9.67973 10.52 9.83973 10.64 9.95973C10.8 10.1197 11 10.2397 11.24 10.3197C11.48 10.3997 11.72 10.5197 12 10.5597C12.28 10.5997 13.36 11.1197 13.6 11.1997C13.8 11.3997 14 11.5197 14.2 11.6797ZM9.28001 13.6397C9.36001 13.5997 9.36001 13.5197 9.40001 13.4397C9.40001 13.3197 9.40001 13.2397 9.36001 13.1197C9.32001 12.9597 9.28001 12.7997 9.28001 12.6397L9.16001 12.1197C9.12001 11.9597 9.08001 11.7997 9.08001 11.7197C9.16001 11.6397 9.28001 11.5597 9.32001 11.4797C9.36001 11.3997 9.40001 11.2797 9.40001 11.1997C9.40001 11.1197 9.36001 11.0397 9.32001 10.9597C9.28001 10.8797 9.20001 10.7997 9.16001 10.7597L8.92001 10.5597L8.24001 10.5597C8.16001 10.6397 8.08001 10.6797 8.00001 10.7597C7.96001 10.7997 7.88001 10.8797 7.84001 10.9597C7.80001 11.0397 7.76001 11.1197 7.76001 11.1997C7.76001 11.2797 7.80001 11.3597 7.84001 11.4397C7.92001 11.5597 8.00001 11.6397 8.08001 11.7197C8.04001 11.8397 8.04001 11.9197 7.96001 12.0797C7.92001 12.2397 7.88001 12.3997 7.84001 12.5997C7.80001 12.7597 7.72001 12.9597 7.72001 13.0797C7.68001 13.1997 7.68001 13.3197 7.68001 13.4397C7.68001 13.5197 7.72001 13.5997 7.80001 13.6397C7.88001 13.7197 7.96001 13.8397 8.04001 13.9197C8.12001 13.9997 8.24001 14.0797 8.32001 14.1597C8.36001 14.1997 8.44001 14.2397 8.52001 14.2397C8.60001 14.2397 8.68001 14.1997 8.72001 14.1597C8.80001 14.0797 8.92001 14.0397 9.00001 13.9197C9.12001 13.8397 9.20001 13.7597 9.28001 13.6397Z"   fill="currentColor" ></path></svg>