<?xml version="1.0" encoding="UTF-8"?>
<svg xmlns="http://www.w3.org/2000/svg" viewBox="0 0 100 100" width="100" height="100">
  <g fill="#52B788">
    <path fill-rule="evenodd" d="M 31.3679 3.4591 L 19.2610 10.3774 L 9.0409 21.0692 L 2.2799 34.9057 L 0.2358 48.2704 L 18.6321 48.4277 L 18.7893 60.2201 L 21.1478 62.7358 L 23.3491 62.4214 L 24.9214 60.3774 L 25.0786 48.4277 L 36.7138 48.4277 L 36.8711 75.6289 L 38.6006 77.9874 L 40.9591 78.1447 L 43.0031 75.9434 L 43.1604 45.9119 L 46.9340 46.0692 L 46.9340 75.6289 L 49.7642 78.3019 L 51.6509 77.8302 L 53.0660 75.7862 L 53.2233 45.9119 L 56.9969 46.0692 L 56.9969 75.7862 L 59.8270 78.3019 L 61.7138 77.8302 L 63.1289 75.7862 L 63.2862 48.4277 L 74.9214 48.4277 L 75.0786 60.3774 L 76.3365 62.2642 L 78.8522 62.7358 L 81.2107 60.2201 L 81.3679 48.4277 L 99.7642 48.2704 L 98.1918 36.4780 L 93.4748 25.0000 L 87.5000 16.6667 L 77.4371 8.0189 L 67.8459 3.1447 L 54.9528 0.1572 L 43.7893 0.3145 Z"/>
    <path fill-rule="evenodd" d="M 59.6698 86.9497 L 59.6698 87.7358 L 59.5126 87.8931 L 59.5126 92.6101 L 59.6698 92.7673 L 59.5126 93.0818 L 59.5126 93.7107 L 59.6698 93.8679 L 59.6698 94.4969 L 59.5126 94.6541 L 59.6698 94.8113 L 59.5126 94.9686 L 59.6698 95.1258 L 59.5126 95.2830 L 59.5126 97.7987 L 59.6698 97.9560 L 59.6698 99.6855 L 62.0283 99.6855 L 62.1855 99.5283 L 62.1855 91.6667 L 62.3428 91.5094 L 67.6887 99.6855 L 70.2044 99.6855 L 70.2044 86.9497 L 67.6887 86.9497 L 67.6887 94.9686 L 67.5314 95.1258 L 62.1855 86.9497 Z"/>
    <path fill-rule="evenodd" d="M 50.3931 86.9497 L 50.2358 87.1069 L 50.2358 87.4214 L 50.0786 87.5786 L 50.0786 87.8931 L 49.7642 88.5220 L 49.7642 88.9937 L 49.6069 89.1509 L 49.6069 89.4654 L 49.4497 89.6226 L 49.4497 89.9371 L 49.2925 90.0943 L 49.2925 90.4088 L 49.1352 90.5660 L 49.1352 90.8805 L 48.8208 91.5094 L 48.8208 91.9811 L 48.6635 92.1384 L 48.6635 92.4528 L 48.5063 92.6101 L 48.5063 92.9245 L 48.3491 93.0818 L 48.3491 93.3962 L 48.1918 93.5535 L 48.1918 93.8679 L 47.8774 94.4969 L 47.8774 94.9686 L 47.7201 95.1258 L 47.7201 95.4403 L 47.5629 95.5975 L 47.5629 95.9119 L 47.4057 96.0692 L 47.4057 96.3836 L 47.2484 96.5409 L 47.2484 96.8553 L 47.0912 97.0126 L 47.0912 97.3270 L 46.9340 97.4843 L 46.9340 97.7987 L 46.7767 97.9560 L 46.7767 98.2704 L 46.6195 98.4277 L 46.6195 98.8994 L 46.4623 99.0566 L 46.4623 99.3711 L 46.3050 99.6855 L 48.9780 99.6855 L 48.9780 99.3711 L 49.2925 98.7421 L 49.2925 98.2704 L 49.4497 98.1132 L 49.6069 97.3270 L 49.9214 97.0126 L 54.4811 97.0126 L 54.7956 97.4843 L 54.7956 97.7987 L 54.9528 97.9560 L 54.9528 98.2704 L 55.1101 98.4277 L 55.1101 98.7421 L 55.2673 98.8994 L 55.2673 99.3711 L 55.4245 99.6855 L 58.0975 99.6855 L 58.0975 99.3711 L 57.9403 99.2138 L 57.9403 98.8994 L 57.7830 98.7421 L 57.7830 98.4277 L 57.6258 98.2704 L 57.6258 97.9560 L 57.4686 97.7987 L 57.4686 97.4843 L 57.3113 97.3270 L 57.3113 97.0126 L 57.1541 96.8553 L 57.1541 96.5409 L 56.9969 96.3836 L 56.9969 96.0692 L 56.8396 95.9119 L 56.8396 95.5975 L 56.6824 95.4403 L 56.6824 95.1258 L 56.5252 94.9686 L 56.5252 94.6541 L 56.3679 94.4969 L 56.3679 94.1824 L 56.2107 94.0252 L 56.2107 93.7107 L 55.8962 93.0818 L 55.8962 92.6101 L 55.7390 92.4528 L 55.7390 92.1384 L 55.5818 91.9811 L 55.5818 91.6667 L 55.4245 91.5094 L 55.4245 91.1950 L 55.2673 91.0377 L 55.2673 90.7233 L 55.1101 90.5660 L 55.1101 90.2516 L 54.9528 90.0943 L 54.9528 89.7799 L 54.7956 89.6226 L 54.7956 89.3082 L 54.6384 89.1509 L 54.6384 88.8365 L 54.4811 88.6792 L 54.4811 88.3648 L 54.3239 88.2075 L 54.3239 87.8931 L 54.1667 87.7358 L 54.0094 86.9497 Z M 52.1226 89.4654 L 52.2799 89.6226 L 52.2799 89.7799 L 52.4371 89.9371 L 52.4371 90.2516 L 52.5943 90.4088 L 52.5943 90.7233 L 52.7516 90.8805 L 52.7516 91.1950 L 52.9088 91.3522 L 52.9088 91.8239 L 53.0660 91.9811 L 53.0660 92.2956 L 53.2233 92.4528 L 53.2233 92.7673 L 53.3805 92.9245 L 53.3805 93.3962 L 53.5377 93.5535 L 53.5377 93.8679 L 53.6950 94.0252 L 53.6950 94.3396 L 53.8522 94.4969 L 53.6950 94.6541 L 50.7075 94.6541 L 50.5503 94.4969 L 50.5503 94.3396 L 50.7075 94.1824 L 50.7075 93.8679 L 50.8648 93.7107 L 50.8648 93.3962 L 51.0220 93.2390 L 51.0220 92.7673 L 51.1792 92.6101 L 51.1792 92.2956 L 51.3365 92.1384 L 51.3365 91.6667 L 51.4937 91.5094 L 51.4937 91.1950 L 51.6509 91.0377 L 51.6509 90.7233 L 51.8082 90.5660 L 51.8082 90.2516 L 51.9654 90.0943 L 51.9654 89.6226 Z"/>
    <path fill-rule="evenodd" d="M 35.9277 86.9497 L 36.3994 88.0503 L 36.7138 88.3648 L 37.1855 89.4654 L 37.9717 90.5660 L 38.4434 91.6667 L 38.7579 91.9811 L 38.9151 92.4528 L 39.2296 92.7673 L 39.3868 93.2390 L 40.1730 94.3396 L 40.1730 99.5283 L 40.3302 99.6855 L 42.6887 99.6855 L 42.6887 94.4969 L 43.1604 93.8679 L 43.3176 93.3962 L 43.6321 93.0818 L 43.9465 92.2956 L 44.2610 91.9811 L 44.5755 91.1950 L 45.3616 90.0943 L 45.8333 88.9937 L 46.1478 88.6792 L 46.3050 88.2075 L 46.6195 87.8931 L 47.0912 86.9497 L 44.1038 86.9497 L 42.6887 89.7799 L 42.3742 90.0943 L 41.9025 91.1950 L 41.4308 91.8239 L 40.8019 90.5660 L 40.4874 90.2516 L 40.0157 89.1509 L 39.7013 88.8365 L 39.2296 87.7358 L 38.9151 87.4214 L 38.7579 86.9497 Z"/>
    <path fill-rule="evenodd" d="M 23.9780 86.9497 L 23.8208 87.2642 L 23.8208 92.1384 L 23.9780 92.2956 L 23.8208 92.7673 L 23.8208 93.2390 L 23.9780 93.3962 L 23.9780 93.8679 L 23.8208 94.0252 L 23.8208 99.5283 L 23.9780 99.6855 L 26.3365 99.6855 L 26.4937 99.5283 L 26.4937 91.6667 L 26.6509 91.5094 L 31.9969 99.6855 L 34.5126 99.6855 L 34.5126 86.9497 L 32.1541 86.9497 L 31.9969 87.1069 L 31.9969 94.8113 L 31.8396 94.9686 L 29.6384 91.8239 L 28.8522 90.4088 L 28.3805 89.9371 L 28.2233 89.4654 L 26.4937 86.9497 Z"/>
    <path fill-rule="evenodd" d="M 14.7013 86.9497 L 14.5440 87.2642 L 14.5440 87.5786 L 14.3868 87.7358 L 14.3868 88.0503 L 14.2296 88.2075 L 14.2296 88.5220 L 14.0723 88.6792 L 14.0723 88.9937 L 13.9151 89.1509 L 13.9151 89.4654 L 13.7579 89.6226 L 13.7579 89.9371 L 13.6006 90.0943 L 13.6006 90.5660 L 13.4434 90.7233 L 13.4434 91.0377 L 13.2862 91.1950 L 13.2862 91.5094 L 13.1289 91.6667 L 13.1289 91.9811 L 12.8145 92.6101 L 12.8145 93.0818 L 12.5000 93.5535 L 12.5000 94.0252 L 12.3428 94.1824 L 12.3428 94.4969 L 12.1855 94.6541 L 12.1855 94.9686 L 12.0283 95.1258 L 12.0283 95.4403 L 11.8711 95.5975 L 11.8711 95.9119 L 11.7138 96.0692 L 11.7138 96.3836 L 11.5566 96.5409 L 11.5566 96.8553 L 11.3994 97.0126 L 11.3994 97.3270 L 11.2421 97.4843 L 11.2421 97.7987 L 11.0849 97.9560 L 11.0849 98.2704 L 10.9277 98.4277 L 10.9277 98.8994 L 10.7704 99.0566 L 10.7704 99.3711 L 10.6132 99.6855 L 13.1289 99.6855 L 13.4434 99.2138 L 13.4434 98.8994 L 13.6006 98.7421 L 13.6006 98.2704 L 13.7579 98.1132 L 13.9151 97.3270 L 14.2296 97.0126 L 18.7893 97.0126 L 19.1038 97.3270 L 19.1038 97.7987 L 19.2610 97.9560 L 19.2610 98.2704 L 19.4182 98.4277 L 19.5755 99.2138 L 19.8899 99.6855 L 22.4057 99.6855 L 22.4057 99.3711 L 22.2484 99.2138 L 22.2484 98.8994 L 22.0912 98.7421 L 22.0912 98.4277 L 21.9340 98.2704 L 21.9340 97.9560 L 21.7767 97.7987 L 21.7767 97.4843 L 21.6195 97.3270 L 21.6195 97.0126 L 21.4623 96.8553 L 21.4623 96.5409 L 21.3050 96.3836 L 21.3050 96.0692 L 21.1478 95.9119 L 21.1478 95.5975 L 20.9906 95.4403 L 20.9906 95.1258 L 20.8333 94.9686 L 20.8333 94.6541 L 20.6761 94.4969 L 20.6761 94.1824 L 20.3616 93.5535 L 20.3616 93.0818 L 20.2044 92.9245 L 20.2044 92.6101 L 20.0472 92.4528 L 20.0472 92.1384 L 19.8899 91.9811 L 19.8899 91.6667 L 19.7327 91.5094 L 19.7327 91.1950 L 19.5755 91.0377 L 19.5755 90.7233 L 19.4182 90.5660 L 19.4182 90.2516 L 19.2610 90.0943 L 19.2610 89.7799 L 19.1038 89.6226 L 19.1038 89.3082 L 18.9465 89.1509 L 18.9465 88.8365 L 18.7893 88.6792 L 18.7893 88.3648 L 18.6321 88.2075 L 18.6321 87.7358 L 18.4748 87.5786 L 18.4748 87.2642 L 18.3176 86.9497 Z M 16.4308 89.6226 L 16.5881 89.6226 L 16.7453 89.7799 L 16.7453 90.0943 L 16.9025 90.2516 L 16.9025 90.5660 L 17.0597 90.7233 L 17.0597 91.1950 L 17.2170 91.3522 L 17.2170 91.6667 L 17.3742 91.8239 L 17.3742 92.1384 L 17.5314 92.2956 L 17.5314 92.7673 L 17.6887 92.9245 L 17.6887 93.2390 L 17.8459 93.3962 L 17.8459 93.7107 L 18.0031 93.8679 L 18.0031 94.3396 L 18.1604 94.4969 L 18.0031 94.6541 L 15.0157 94.6541 L 14.8585 94.4969 L 14.8585 94.3396 L 15.0157 94.1824 L 15.0157 93.8679 L 15.1730 93.7107 L 15.1730 93.3962 L 15.3302 93.2390 L 15.3302 92.7673 L 15.4874 92.6101 L 15.4874 92.2956 L 15.6447 92.1384 L 15.6447 91.8239 L 15.8019 91.6667 L 15.8019 91.1950 L 15.9591 91.0377 L 15.9591 90.7233 L 16.1164 90.5660 L 16.1164 90.2516 L 16.2736 90.0943 L 16.2736 89.7799 Z"/>
    <path fill-rule="evenodd" d="M 0.2358 86.9497 L 0.2358 99.5283 L 0.3931 99.6855 L 6.5252 99.6855 L 6.6824 99.5283 L 7.3113 99.5283 L 7.4686 99.3711 L 7.7830 99.3711 L 7.9403 99.2138 L 8.4119 99.0566 L 9.3553 98.1132 L 9.3553 97.9560 L 9.8270 97.1698 L 9.8270 96.6981 L 9.9843 96.5409 L 9.9843 95.4403 L 9.8270 95.2830 L 9.8270 94.6541 L 9.6698 94.4969 L 9.3553 93.7107 L 8.4119 92.9245 L 8.4119 92.7673 L 9.0409 92.1384 L 9.0409 91.9811 L 9.1981 91.8239 L 9.1981 91.5094 L 9.3553 91.3522 L 9.3553 89.4654 L 9.1981 89.3082 L 9.1981 88.9937 L 8.7264 88.3648 L 8.7264 88.2075 L 7.7830 87.4214 L 7.6258 87.4214 L 7.1541 87.1069 L 6.6824 87.1069 L 6.5252 86.9497 Z M 2.7516 94.3396 L 2.9088 94.1824 L 6.3679 94.1824 L 6.5252 94.3396 L 6.6824 94.3396 L 7.1541 94.8113 L 7.1541 94.9686 L 7.3113 95.1258 L 7.3113 96.3836 L 7.1541 96.5409 L 7.1541 96.6981 L 6.6824 97.1698 L 6.5252 97.1698 L 6.3679 97.3270 L 2.9088 97.3270 L 2.7516 97.1698 Z M 2.7516 89.3082 L 2.9088 89.1509 L 5.5818 89.1509 L 5.7390 89.3082 L 6.2107 89.3082 L 6.8396 89.9371 L 6.8396 91.0377 L 6.6824 91.1950 L 6.6824 91.3522 L 6.3679 91.6667 L 6.2107 91.6667 L 6.0535 91.8239 L 2.9088 91.8239 L 2.7516 91.6667 Z"/>
    <path fill-rule="evenodd" d="M 92.3742 86.9497 L 91.2736 87.5786 L 90.3302 88.5220 L 89.8585 89.6226 L 89.8585 91.5094 L 90.3302 92.4528 L 90.9591 93.0818 L 92.2170 93.7107 L 93.6321 94.1824 L 95.3616 94.4969 L 96.4623 94.9686 L 97.0912 95.5975 L 97.0912 96.5409 L 95.9906 97.4843 L 95.5189 97.6415 L 94.2610 97.6415 L 94.1038 97.4843 L 93.6321 97.4843 L 92.8459 97.0126 L 92.3742 96.5409 L 91.7453 95.2830 L 91.5881 95.4403 L 89.3868 95.7547 L 89.3868 96.5409 L 89.7013 97.0126 L 89.7013 97.3270 L 91.1164 98.8994 L 92.8459 99.6855 L 93.3176 99.6855 L 93.4748 99.8428 L 95.9906 99.8428 L 97.5629 99.3711 L 98.1918 99.0566 L 99.2925 97.9560 L 99.7642 96.8553 L 99.7642 95.1258 L 99.4497 94.1824 L 98.9780 93.5535 L 97.7201 92.7673 L 93.0031 91.3522 L 92.5314 90.8805 L 92.3742 90.0943 L 93.0031 89.3082 L 93.6321 88.9937 L 95.3616 88.9937 L 95.9906 89.3082 L 96.7767 90.0943 L 97.0912 90.8805 L 97.5629 90.8805 L 97.7201 90.7233 L 99.6069 90.4088 L 99.4497 89.4654 L 99.1352 88.8365 L 97.8774 87.5786 L 97.0912 87.1069 L 96.1478 86.7925 L 95.5189 86.7925 L 95.3616 86.6352 L 93.7893 86.6352 L 93.6321 86.7925 Z"/>
    <path fill-rule="evenodd" d="M 81.0535 86.6352 L 80.8962 86.7925 L 80.2673 86.7925 L 80.1101 86.9497 L 79.7956 86.9497 L 79.6384 87.1069 L 79.3239 87.1069 L 79.1667 87.2642 L 78.6950 87.4214 L 78.3805 87.7358 L 78.2233 87.7358 L 76.8082 89.1509 L 76.8082 89.3082 L 76.1792 90.4088 L 76.1792 90.7233 L 76.0220 90.8805 L 76.0220 91.1950 L 75.8648 91.3522 L 75.8648 91.9811 L 75.7075 92.1384 L 75.7075 94.3396 L 75.8648 94.4969 L 75.8648 95.2830 L 76.0220 95.4403 L 76.1792 96.2264 L 76.3365 96.3836 L 76.6509 97.1698 L 76.9654 97.4843 L 76.9654 97.6415 L 78.0660 98.7421 L 78.2233 98.7421 L 78.5377 99.0566 L 78.6950 99.0566 L 79.4811 99.5283 L 79.7956 99.5283 L 79.9528 99.6855 L 80.5818 99.6855 L 80.7390 99.8428 L 83.0975 99.8428 L 83.2547 99.6855 L 83.8836 99.6855 L 84.0409 99.5283 L 84.3553 99.5283 L 84.5126 99.3711 L 85.2987 99.0566 L 85.6132 98.7421 L 85.7704 98.7421 L 86.7138 97.7987 L 86.7138 97.6415 L 87.1855 97.1698 L 87.1855 97.0126 L 87.6572 96.2264 L 87.6572 95.9119 L 87.8145 95.7547 L 87.8145 95.2830 L 87.9717 95.1258 L 87.9717 94.4969 L 88.1289 94.3396 L 88.1289 92.2956 L 87.9717 92.1384 L 87.9717 91.3522 L 87.8145 91.1950 L 87.6572 90.4088 L 87.5000 90.2516 L 87.0283 89.1509 L 85.6132 87.7358 L 85.4560 87.7358 L 85.1415 87.4214 L 84.9843 87.4214 L 84.5126 87.1069 L 84.1981 87.1069 L 84.0409 86.9497 L 83.7264 86.9497 L 83.5692 86.7925 L 82.9403 86.7925 L 82.7830 86.6352 Z M 81.0535 88.9937 L 82.7830 88.9937 L 82.9403 89.1509 L 83.2547 89.1509 L 83.4119 89.3082 L 83.5692 89.3082 L 83.7264 89.4654 L 83.8836 89.4654 L 84.6698 90.2516 L 84.6698 90.4088 L 84.9843 90.7233 L 84.9843 90.8805 L 85.1415 91.0377 L 85.1415 91.1950 L 85.2987 91.3522 L 85.2987 91.8239 L 85.4560 91.9811 L 85.4560 94.4969 L 85.2987 94.6541 L 85.2987 95.1258 L 85.1415 95.2830 L 85.1415 95.4403 L 84.9843 95.5975 L 84.9843 95.7547 L 84.8270 95.9119 L 84.8270 96.0692 L 83.7264 97.1698 L 83.5692 97.1698 L 83.4119 97.3270 L 83.2547 97.3270 L 83.0975 97.4843 L 82.4686 97.4843 L 82.3113 97.6415 L 81.5252 97.6415 L 81.3679 97.4843 L 80.7390 97.4843 L 80.5818 97.3270 L 80.4245 97.3270 L 80.2673 97.1698 L 80.1101 97.1698 L 79.0094 96.0692 L 79.0094 95.9119 L 78.8522 95.7547 L 78.8522 95.5975 L 78.6950 95.4403 L 78.6950 95.2830 L 78.5377 95.1258 L 78.5377 94.6541 L 78.3805 94.4969 L 78.3805 91.9811 L 78.5377 91.8239 L 78.5377 91.5094 L 78.6950 91.3522 L 78.6950 91.0377 L 78.8522 90.8805 L 78.8522 90.7233 L 79.1667 90.4088 L 79.1667 90.2516 L 79.9528 89.4654 L 80.1101 89.4654 L 80.2673 89.3082 L 80.4245 89.3082 L 80.5818 89.1509 L 80.8962 89.1509 Z"/>
  </g>
</svg>
