<svg xmlns="http://www.w3.org/2000/svg" xmlns:xlink="http://www.w3.org/1999/xlink" width="36" height="36" viewBox="0 0 36 36" fill="none"><foreignObject x="-5" y="-5" width="46" height="46"><div xmlns="http://www.w3.org/1999/xhtml" style="backdrop-filter:blur(2px);clip-path:url(#bgblur_36_36_4_clip_path);height:100%;width:100%"></div></foreignObject><rect  x="0" y="0" width="36" height="36" rx="6"    fill="#EFF0F4" fill-opacity="0.38"></rect><defs><clipPath id="bgblur_36_36_4_clip_path" transform="translate(5 5)"><rect x="0" y="0" width="36" height="36" rx="6"/></clipPath></defs><path    stroke="rgba(255, 255, 255, 0.8)" stroke-width="1.3333333333333333" stroke-linejoin="round" stroke-linecap="round"  d="M17.25 12L17.25 16.5C17.25 17.3284 15.739 18 13.875 18C12.011 18 10.5 17.3284 10.5 16.5L10.5 12"></path><path    stroke="rgba(255, 255, 255, 0.8)" stroke-width="1.3333333333333333" stroke-linejoin="round" stroke-linecap="round"  d="M17.25 14.25C17.25 15.0784 15.739 15.75 13.875 15.75C12.011 15.75 10.5 15.0784 10.5 14.25"></path><path d="M17.25 12C17.25 12.8284 15.739 13.5 13.875 13.5C12.011 13.5 10.5 12.8284 10.5 12C10.5 11.1716 12.011 10.5 13.875 10.5C15.739 10.5 17.25 11.1716 17.25 12Z" stroke="rgba(255, 255, 255, 0.8)" stroke-width="1.3333333333333333" stroke-linejoin="round" stroke-linecap="round" ></path><path    stroke="rgba(255, 255, 255, 0.8)" stroke-width="1.3333333333333333" stroke-linejoin="round" stroke-linecap="round"  d="M21 11.25L23.25 11.25C24.0784 11.25 24.75 11.9216 24.75 12.75L24.75 15"></path><path    stroke="rgba(255, 255, 255, 0.8)" stroke-width="1.3333333333333333" stroke-linejoin="round" stroke-linecap="round"  d="M15 24.75L12.75 24.75C11.9216 24.75 11.25 24.0784 11.25 23.25L11.25 21"></path><circle cx="22.125" cy="19.875" r="1.875" stroke="rgba(255, 255, 255, 0.8)" stroke-width="1.3333333333333333" stroke-linejoin="round" stroke-linecap="round" ></circle><path d="M25.5 25.5L18.75 25.5C18.75 23.636 20.261 22.125 22.125 22.125C23.989 22.125 25.5 23.636 25.5 25.5Z" stroke="rgba(255, 255, 255, 0.8)" stroke-width="1.3333333333333333" stroke-linejoin="round" stroke-linecap="round" ></path></svg>